<svg xmlns="http://www.w3.org/2000/svg" viewBox="0 0 1200 1350" role="img" aria-label="Tiny Explorer Sandals">
    <defs>
      <linearGradient id="bg" x1="0" x2="1" y1="0" y2="1"><stop offset="0" stop-color="#d6a87a"/><stop offset="0.55" stop-color="#fff2df"/><stop offset="1" stop-color="#d9c7ee"/></linearGradient>
      <filter id="shadow" x="-20%" y="-20%" width="140%" height="140%"><feDropShadow dx="0" dy="18" stdDeviation="18" flood-color="#4d372d" flood-opacity="0.16"/></filter>
    </defs>
    <rect width="1200" height="1350" rx="90" fill="url(#bg)"/>
    <circle cx="1000" cy="185" r="165" fill="#fff" opacity="0.35"/>
    <circle cx="185" cy="1120" r="210" fill="#fff" opacity="0.28"/>
    <text x="90" y="115" font-family="Inter, Arial, sans-serif" font-size="38" font-weight="800" letter-spacing="8" fill="#2a201d" opacity="0.52">BAEBE BOO</text><g filter="url(#shadow)"><path d="M385 720c82-110 150-198 274-218 102-17 174 28 206 113 22 59 11 136-35 185-54 57-148 80-294 75-104-4-179-25-202-63-19-31 1-61 51-92z" fill="#fffaf2"/><path d="M480 700c110-32 214-25 326 25M560 585c30 85 67 169 111 251" stroke="#d9c7ee" stroke-width="31" stroke-linecap="round" fill="none"/></g><text x="600" y="1195" font-family="Georgia, serif" font-size="54" font-weight="700" text-anchor="middle" fill="#231f1d">Tiny Explorer Sandals</text><text x="600" y="1265" font-family="Inter, Arial, sans-serif" font-size="28" font-weight="800" letter-spacing="6" text-anchor="middle" fill="#231f1d" opacity="0.52">BABY SHOES</text></svg>